<svg width="21" height="20" viewBox="0 0 21 20" fill="none" xmlns="http://www.w3.org/2000/svg">
<g clip-path="url(#clip0_4_137)">
<path d="M20.125 1.47059V18.5294C20.125 18.9194 19.97 19.2935 19.6943 19.5693C19.4185 19.845 19.0444 20 18.6544 20H1.59559C1.20557 20 0.831517 19.845 0.555726 19.5693C0.279937 19.2935 0.125 18.9194 0.125 18.5294V1.47059C0.125 1.08057 0.279937 0.706517 0.555726 0.430726C0.831517 0.154937 1.20557 0 1.59559 0H18.6544C19.0444 0 19.4185 0.154937 19.6943 0.430726C19.97 0.706517 20.125 1.08057 20.125 1.47059ZM6.00735 7.64703H3.06618V17.0588H6.00735V7.64703ZM6.27206 4.41177C6.27361 4.18929 6.23132 3.96868 6.14761 3.76255C6.0639 3.55642 5.94041 3.36879 5.78419 3.21039C5.62797 3.05198 5.44208 2.9259 5.23712 2.83933C5.03218 2.75277 4.81218 2.70742 4.5897 2.70588H4.53677C4.08434 2.70588 3.65044 2.88561 3.33052 3.20552C3.01061 3.52544 2.83088 3.95934 2.83088 4.41177C2.83088 4.86419 3.01061 5.29809 3.33052 5.61801C3.65044 5.93792 4.08434 6.11765 4.53677 6.11765C4.75926 6.12312 4.98065 6.0847 5.18828 6.00459C5.39592 5.92446 5.58574 5.80422 5.74689 5.65072C5.90804 5.49721 6.03737 5.31346 6.12748 5.10997C6.21759 4.90646 6.26672 4.6872 6.27206 4.4647V4.41177ZM17.1838 11.3412C17.1838 8.51179 15.3838 7.41179 13.5956 7.41179C13.0101 7.38241 12.4271 7.50717 11.9049 7.77345C11.3826 8.03972 10.9393 8.43834 10.6191 8.92938H10.5368V7.64703H7.77203V17.0588H10.7132V12.053C10.6707 11.5403 10.8322 11.0315 11.1627 10.6372C11.4931 10.2429 11.9657 9.9949 12.478 9.94703H12.5897C13.525 9.94703 14.2191 10.5353 14.2191 12.0177V17.0588H17.1603L17.1838 11.3412Z" fill="white"/>
</g>
<defs>
<clipPath id="clip0_4_137">
<rect width="20" height="20" fill="white" transform="translate(0.125)"/>
</clipPath>
</defs>
</svg>
