<svg width="523" height="146" viewBox="0 0 523 146" fill="none" xmlns="http://www.w3.org/2000/svg">
<path d="M45.125 63V45H18.125V63H0.125V0H18.125V27H45.125V0H63.125V63H45.125Z" fill="#FD0000"/>
<path d="M117.125 63V45H90.125V63H72.125V9H81.125V0H126.125V9H135.125V63H117.125ZM117.125 27V18H90.125V27H117.125Z" fill="#FD0000"/>
<path d="M153.125 63V54H144.125V9H153.125V0H207.125V18H162.125V45H207.125V63H153.125Z" fill="#FD0000"/>
<path d="M252.125 63V54H243.125V45H234.125V63H216.125V0H234.125V18H243.125V9H252.125V0H279.125V9H270.125V18H261.125V27H252.125V36H261.125V45H270.125V54H279.125V63H252.125Z" fill="#FD0000"/>
<path d="M288.125 63V0H351.125V18H306.125V27H333.125V45H306.125V63H288.125Z" fill="#FD0000"/>
<path d="M360.125 63V0H378.125V45H423.125V63H360.125Z" fill="#FD0000"/>
<path d="M432.125 63V0H450.125V63H432.125Z" fill="#FD0000"/>
<path d="M504.125 63V54H495.125V45H486.125V54H477.125V63H459.125V45H468.125V36H477.125V27H468.125V18H459.125V0H477.125V9H486.125V18H495.125V9H504.125V0H522.125V18H513.125V27H504.125V36H513.125V45H522.125V63H504.125Z" fill="#FD0000"/>
<path d="M40.625 119V110H31.625V146H13.625V83H31.625V92H40.625V101H49.625V92H58.625V83H76.625V146H58.625V110H49.625V119H40.625Z" fill="white"/>
<path d="M130.625 146V128H103.625V146H85.625V92H94.625V83H139.625V92H148.625V146H130.625ZM130.625 110V101H103.625V110H130.625Z" fill="white"/>
<path d="M157.625 146V83H211.625V92H220.625V137H211.625V146H157.625ZM202.625 128V101H175.625V128H202.625Z" fill="white"/>
<path d="M274.625 146V128H265.625V119H256.625V110H247.625V146H229.625V83H247.625V92H256.625V101H265.625V110H274.625V83H292.625V146H274.625Z" fill="white"/>
<path d="M301.625 146V83H364.625V101H319.625V110H346.625V119H319.625V128H364.625V146H301.625Z" fill="white"/>
<path d="M373.625 146V128H418.625V119H373.625V92H382.625V83H436.625V101H391.625V110H436.625V137H427.625V146H373.625Z" fill="white"/>
<path d="M445.625 146V128H490.625V119H445.625V92H454.625V83H508.625V101H463.625V110H508.625V137H499.625V146H445.625Z" fill="white"/>
</svg>
