<svg width="26" height="20" viewBox="0 0 26 20" fill="none" xmlns="http://www.w3.org/2000/svg">
<g clip-path="url(#clip0_4_113)">
<path d="M25.3334 2.37334C24.4288 2.77418 23.457 3.04503 22.4354 3.16744C23.4896 2.5367 24.2782 1.54398 24.6542 0.374509C23.6638 0.962769 22.5799 1.37684 21.4495 1.59872C20.6895 0.787128 19.6826 0.249191 18.5855 0.0684275C17.4883 -0.112336 16.3622 0.0741883 15.3818 0.599041C14.4015 1.12389 13.622 1.95771 13.1641 2.97104C12.7062 3.98436 12.5958 5.1205 12.8497 6.20306C10.843 6.1023 8.87983 5.58072 7.08773 4.67215C5.29562 3.76358 3.71457 2.48835 2.44719 0.929198C2.01384 1.67673 1.76466 2.54343 1.76466 3.46645C1.76418 4.2974 1.9688 5.11561 2.36039 5.84851C2.75197 6.5814 3.31839 7.2063 4.00941 7.66778C3.20801 7.64228 2.4243 7.42574 1.7235 7.03617V7.10117C1.72341 8.26663 2.12654 9.39616 2.86448 10.2982C3.60243 11.2003 4.62972 11.8192 5.77206 12.05C5.02863 12.2512 4.2492 12.2808 3.49264 12.1367C3.81495 13.1395 4.44276 14.0164 5.28819 14.6446C6.13362 15.2729 7.15436 15.6211 8.20749 15.6403C6.41974 17.0438 4.21188 17.805 1.93909 17.8017C1.53648 17.8017 1.13422 17.7782 0.734375 17.7313C3.0414 19.2145 5.72693 20.0018 8.46966 19.9987C17.7541 19.9987 22.8298 12.3089 22.8298 5.63971C22.8298 5.42303 22.8244 5.20419 22.8146 4.98751C23.8019 4.27354 24.6541 3.38942 25.3313 2.37658L25.3334 2.37334Z" fill="white"/>
</g>
<defs>
<clipPath id="clip0_4_113">
<rect width="24.7969" height="19.9975" fill="white" transform="translate(0.734375 0.00126648)"/>
</clipPath>
</defs>
</svg>
