<svg width="131" height="37" viewBox="0 0 131 37" fill="none" xmlns="http://www.w3.org/2000/svg">
<path d="M0.649902 1.41H6.1499V15.66H12.0499V1.41H17.5499V36.41H12.0499V20.66H6.1499V36.41H0.649902V1.41Z" fill="#FD0000"/>
<path d="M25.3959 1.21H32.2499L37.4939 33.41H32.4339L31.5139 27.016V27.108H25.7639L24.8439 33.41H20.1519L25.3959 1.21ZM30.9159 22.738L28.6619 6.822H28.5699L26.3619 22.738H30.9159Z" fill="#FD0000"/>
<path d="M46.8319 30.83C44.6199 30.83 42.9259 30.2 41.7499 28.94C40.6019 27.68 40.0279 25.902 40.0279 23.606V7.814C40.0279 5.518 40.6019 3.74 41.7499 2.48C42.9259 1.22 44.6199 0.589996 46.8319 0.589996C49.0439 0.589996 50.7239 1.22 51.8719 2.48C53.0479 3.74 53.6359 5.518 53.6359 7.814V10.922H49.2679V7.52C49.2679 5.7 48.4979 4.79 46.9579 4.79C45.4179 4.79 44.6479 5.7 44.6479 7.52V23.942C44.6479 25.734 45.4179 26.63 46.9579 26.63C48.4979 26.63 49.2679 25.734 49.2679 23.942V19.448H53.6359V23.606C53.6359 25.902 53.0479 27.68 51.8719 28.94C50.7239 30.2 49.0439 30.83 46.8319 30.83Z" fill="#FD0000"/>
<path d="M57.2399 1.41H61.6399V13.21L67.2399 1.41H71.6399L66.3999 11.69L71.7199 29.41H67.1199L63.3999 16.93L61.6399 20.49V29.41H57.2399V1.41Z" fill="#FD0000"/>
<path d="M74.2399 1.41H85.8799V5.41H78.6399V13.21H84.3199V17.21H78.6399V29.41H74.2399V1.41Z" fill="#FD0000"/>
<path d="M88.3219 1.01H92.9419V26.21H100.544V30.41H88.3219V1.01Z" fill="#FD0000"/>
<path d="M103.486 1.21H108.546V33.41H103.486V1.21Z" fill="#FD0000"/>
<path d="M117.5 18.51L111.45 1.41H117.25L120.95 12.71H121.05L124.85 1.41H130.05L124 18.51L130.35 36.41H124.55L120.55 24.21H120.45L116.35 36.41H111.15L117.5 18.51Z" fill="#FD0000"/>
</svg>
